<svg width="1026" height="168" viewBox="0 0 1026 168" fill="none" xmlns="http://www.w3.org/2000/svg">
<rect width="1026" height="168" fill="white"/>
<path fill-rule="evenodd" clip-rule="evenodd" d="M169.83 108.187H179.49V72.9789H169.83V108.187ZM180.19 63.3196C180.19 64.9069 179.7 66.1783 178.721 67.1348C177.74 68.0913 176.386 68.569 174.661 68.569C172.981 68.569 171.638 68.0913 170.636 67.1348C169.632 66.1783 169.13 64.9069 169.13 63.3196C169.13 61.7791 169.632 60.5087 170.636 59.5044C171.638 58.5021 172.981 58 174.661 58C176.341 58 177.681 58.4894 178.685 59.4693C179.688 60.4492 180.19 61.7343 180.19 63.3196ZM148.559 108.887C142.026 108.887 137.091 106.892 133.755 102.903C130.418 98.9128 128.75 93.0453 128.75 85.2989C128.75 77.8324 130.476 72.1033 133.93 68.1145C137.383 64.1248 142.352 62.13 148.839 62.13C151.312 62.13 153.645 62.4098 155.838 62.9695C158.031 63.5291 160.109 64.393 162.069 65.56L158.148 73.2586C156.702 72.4669 155.197 71.8488 153.634 71.4042C152.07 70.9615 150.542 70.7392 149.049 70.7392C145.549 70.7392 142.982 71.918 141.349 74.2736C139.716 76.6312 138.9 80.3059 138.9 85.2989C138.9 90.4323 139.716 94.2231 141.349 96.6733C142.982 99.1225 145.549 100.347 149.049 100.347C149.889 100.347 150.694 100.291 151.464 100.173C152.234 100.057 152.991 99.882 153.738 99.647V85.7884H162.769V105.247C160.622 106.461 158.37 107.371 156.014 107.976C153.657 108.583 151.172 108.887 148.559 108.887ZM210.12 72.9787H199.97V64.2291H192.901L191.15 72.9787L184.431 73.9596V80.8879H190.45V96.7775C190.45 100.698 191.477 103.697 193.53 105.773C195.583 107.85 198.523 108.887 202.35 108.887C204.03 108.887 205.651 108.688 207.215 108.292C208.778 107.896 210.283 107.325 211.73 106.577L209.21 99.1585C208.276 99.5777 207.366 99.8926 206.48 100.102C205.593 100.313 204.753 100.418 203.96 100.418C202.513 100.418 201.486 100.102 200.88 99.4724C200.274 98.8426 199.97 97.7818 199.97 96.2881V80.8879H210.12V72.9787ZM234.94 108.887C228.407 108.887 223.472 106.892 220.136 102.903C216.8 98.9129 215.131 93.0453 215.131 85.2989C215.131 77.8324 216.857 72.1033 220.311 68.1146C223.764 64.1249 228.734 62.13 235.22 62.13C237.694 62.13 240.026 62.4098 242.22 62.9695C244.412 63.5291 246.49 64.393 248.45 65.5601L244.529 73.2587C243.084 72.467 241.578 71.8488 240.015 71.4042C238.451 70.9616 236.924 70.7393 235.431 70.7393C231.931 70.7393 229.363 71.918 227.73 74.2736C226.097 76.6312 225.281 80.306 225.281 85.2989C225.281 90.4323 226.097 94.2231 227.73 96.6733C229.363 99.1225 231.931 100.347 235.431 100.347C236.27 100.347 237.076 100.291 237.845 100.173C238.615 100.057 239.373 99.882 240.12 99.647V85.7884H249.15V105.247C247.003 106.461 244.751 107.371 242.395 107.976C240.039 108.583 237.553 108.887 234.94 108.887ZM256.163 72.9783V97.1281C256.163 100.861 257.096 103.754 258.963 105.808C260.828 107.862 263.442 108.888 266.802 108.888C268.715 108.888 270.512 108.49 272.192 107.697C273.872 106.904 275.622 105.644 277.441 103.918V108.188H286.541V72.9783H276.952V97.4079C275.644 98.3878 274.42 99.1113 273.277 99.5783C272.132 100.044 271.048 100.277 270.021 100.277C268.575 100.277 267.502 99.8815 266.802 99.0879C266.102 98.2942 265.752 97.0823 265.752 95.4472V72.9783H256.163ZM302.031 97.8279C302.031 99.0417 302.403 99.9748 303.151 100.627C303.897 101.281 304.97 101.608 306.37 101.608C307.63 101.608 308.809 101.387 309.906 100.942C311.002 100.499 312.156 99.812 313.37 98.8779V94.118H306.441C305.041 94.118 303.955 94.4446 303.186 95.0979C302.416 95.7521 302.031 96.6618 302.031 97.8279ZM322.749 85.2981V108.187H313.72V104.338C312.273 105.924 310.734 107.079 309.1 107.802C307.466 108.526 305.624 108.887 303.571 108.887C300.397 108.887 297.819 107.92 295.836 105.982C293.852 104.046 292.861 101.538 292.861 98.4577C292.861 95.2383 293.981 92.6838 296.222 90.7932C298.461 88.9037 301.564 87.9579 305.531 87.9579H313.37V86.2088C313.37 84.2481 312.916 82.8255 312.005 81.9383C311.095 81.053 309.613 80.6084 307.56 80.6084C306.066 80.6084 304.456 80.8307 302.731 81.2733C301.004 81.7179 299.044 82.4063 296.851 83.3384L293.981 76.059C296.501 74.8461 299.044 73.9131 301.61 73.2588C304.177 72.6066 306.626 72.279 308.96 72.279C313.626 72.279 317.091 73.3524 319.355 75.4994C321.617 77.6463 322.749 80.9126 322.749 85.2981ZM340.087 108.187V84.3884C341.767 83.3627 343.527 82.6158 345.371 82.1488C347.214 81.6827 349.302 81.4487 351.636 81.4487V72.2789C349.302 72.2789 347.191 72.7235 345.301 73.6088C343.411 74.496 341.509 75.8961 339.597 77.8091V72.9789H330.427V108.187H340.087ZM364.962 90.6878C364.962 94.2358 365.463 96.7776 366.466 98.3181C367.47 99.8576 369.185 100.627 371.611 100.627C372.591 100.627 373.56 100.464 374.517 100.137C375.472 99.8118 376.395 99.298 377.281 98.5979V81.1688C376.395 80.7954 375.531 80.5156 374.691 80.3284C373.852 80.1431 373.012 80.0486 372.172 80.0486C369.512 80.0486 367.644 80.8656 366.572 82.4987C365.498 84.1319 364.962 86.8619 364.962 90.6878ZM386.94 60.7289V108.187H377.841V104.407C376.534 105.947 375.122 107.079 373.606 107.803C372.09 108.525 370.422 108.887 368.602 108.887C364.308 108.887 361.018 107.336 358.733 104.232C356.445 101.13 355.303 96.6148 355.303 90.6878C355.303 84.8085 356.633 80.2699 359.292 77.0738C361.952 73.8788 365.662 72.2788 370.422 72.2788C371.635 72.2788 372.813 72.3958 373.956 72.6298C375.099 72.8638 376.208 73.2362 377.281 73.7491V60.7289H386.94ZM404.53 108.187H394.871V72.9789H404.53V108.187ZM403.761 67.1348C404.741 66.1783 405.231 64.9069 405.231 63.3196C405.231 61.7343 404.729 60.4492 403.726 59.4693C402.722 58.4894 401.381 58 399.701 58C398.021 58 396.679 58.5021 395.677 59.5044C394.672 60.5087 394.171 61.7791 394.171 63.3196C394.171 64.9069 394.672 66.1783 395.677 67.1348C396.679 68.0913 398.021 68.569 399.701 68.569C401.427 68.569 402.78 68.0913 403.761 67.1348ZM419.852 97.8279C419.852 99.0417 420.225 99.9748 420.973 100.627C421.718 101.281 422.792 101.608 424.192 101.608C425.452 101.608 426.631 101.387 427.727 100.942C428.823 100.499 429.978 99.812 431.192 98.8779V94.118H424.262C422.862 94.118 421.777 94.4446 421.008 95.0979C420.237 95.7521 419.852 96.6618 419.852 97.8279ZM440.571 85.2981V108.187H431.542V104.338C430.095 105.924 428.555 107.079 426.922 107.802C425.288 108.526 423.445 108.887 421.393 108.887C418.218 108.887 415.64 107.92 413.657 105.982C411.674 104.046 410.682 101.538 410.682 98.4577C410.682 95.2383 411.803 92.6838 414.043 90.7932C416.283 88.9037 419.385 87.9579 423.353 87.9579H431.192V86.2088C431.192 84.2481 430.737 82.8255 429.827 81.9383C428.917 81.053 427.435 80.6084 425.382 80.6084C423.888 80.6084 422.278 80.8307 420.552 81.2733C418.826 81.7179 416.866 82.4063 414.673 83.3384L411.803 76.059C414.323 74.8461 416.866 73.9131 419.432 73.2588C421.998 72.6066 424.447 72.279 426.782 72.279C431.448 72.279 434.912 73.3524 437.177 75.4994C439.439 77.6463 440.571 80.9126 440.571 85.2981ZM457.908 108.188V83.759C459.214 82.8259 460.498 82.1142 461.758 81.6238C463.018 81.1343 464.184 80.8886 465.258 80.8886C466.704 80.8886 467.766 81.2854 468.443 82.0781C469.119 82.8727 469.458 84.0856 469.458 85.7188V108.188H479.047V84.0388C479.047 80.2588 478.125 77.3542 476.282 75.3243C474.438 73.2943 471.838 72.2794 468.477 72.2794C466.471 72.2794 464.593 72.6889 462.843 73.504C461.094 74.321 459.284 75.5934 457.419 77.3191V72.9784H448.249V108.188H457.908Z" fill="#020D26"/>
<path fill-rule="evenodd" clip-rule="evenodd" d="M99.4729 34.5235C96.236 31.6897 91.38 31.7233 88.1523 34.5349C85.5575 36.7955 82.2334 38.0402 78.7905 38.0402C75.3484 38.0402 72.0242 36.7953 69.4305 34.5349C66.2003 31.721 61.3434 31.6918 58.1071 34.5253L58.0908 34.5396L58.0748 34.554C48.2667 43.3747 47.1499 53.7256 47.4465 59.8038L43.4576 62.7658C39.8806 65.3765 37.7507 69.5706 37.7507 74.0019V79.3419C37.7507 96.491 44.4504 113.45 55.6029 123.552C64.0759 131.225 71.5283 135.464 78.7891 135.476H78.8006C86.0547 135.464 93.5073 131.225 101.979 123.552C113.132 113.45 119.831 96.4909 119.831 79.3419V74.0019C119.831 69.5748 117.705 65.379 114.141 62.7782L110.142 59.8086C110.423 53.522 109.086 43.1177 99.4982 34.5459L99.4856 34.5347L99.4729 34.5235Z" fill="white"/>
<path fill-rule="evenodd" clip-rule="evenodd" d="M76.9214 55.9619C76.4869 55.5152 75.9089 54.9209 75.0607 54.144C69.3261 48.8901 61.7467 47.4373 55.6746 51.5566C56.934 47.1499 59.437 43.144 62.9578 40.0618C63.4157 39.661 64.1188 39.6707 64.5942 40.0846C68.543 43.5122 73.4586 45.4009 78.7907 45.4009C84.1228 45.4009 89.0515 43.5122 92.9871 40.0846C93.4617 39.6707 94.1657 39.661 94.6236 40.0618C98.1443 43.144 100.647 47.1499 101.907 51.5566C95.8347 47.4373 88.2553 48.8901 82.5206 54.144C81.6725 54.9209 81.0944 55.5152 80.66 55.9619C79.8015 56.8445 79.5038 57.1506 78.7907 57.1506C78.0776 57.1506 77.7798 56.8445 76.9214 55.9619ZM59.5432 78.7502C63.9956 82.9302 69.6573 85.4921 75.7804 86.1293C78.3458 90.4981 79.7581 95.9972 79.7581 101.688C79.7581 110.463 76.1187 118.85 69.7539 124.871C67.0057 123.234 63.9947 120.932 60.6884 117.937C55.1989 112.965 50.9179 105.909 48.2839 97.8947L59.5432 78.7502Z" fill="#475B87"/>
<path fill-rule="evenodd" clip-rule="evenodd" d="M47.9456 68.8685L51.7573 66.0386C52.7469 69.4591 54.371 72.66 56.5585 75.4794L46.7266 92.1956C45.8126 88.0368 45.3265 83.7074 45.3265 79.3421V74.002C45.3265 71.9516 46.2748 70.0849 47.9456 68.8685ZM105.882 66.0811L109.652 68.8812C111.306 70.0853 112.255 71.9511 112.255 74.0015V79.3416C112.255 90.345 109.179 101.12 103.896 109.49C105.467 105.032 106.36 100.345 106.36 95.8881C106.36 88.8571 104.354 82.0872 100.554 76.2312C103.07 73.2325 104.898 69.536 105.882 66.0811Z" fill="#E9EDF5"/>
<path fill-rule="evenodd" clip-rule="evenodd" d="M103.896 109.49C109.179 101.119 112.256 90.3454 112.256 79.3419V74.0019C112.256 71.9515 111.306 70.0856 109.652 68.8816L105.882 66.0815C104.898 69.5363 103.07 73.2329 100.554 76.2316C104.354 82.0875 106.36 88.8575 106.36 95.8876C106.36 100.344 105.466 105.031 103.896 109.49ZM78.7942 127.9C81.8966 127.895 85.4833 126.512 89.6368 123.719C96.7856 117.845 102.129 106 102.129 95.8876C102.129 90.0053 100.537 84.3313 97.5159 79.3551C92.8579 83.4506 86.9659 85.8464 80.6196 86.2305C82.8036 90.8077 83.9892 96.1829 83.9892 101.688C83.9892 111.109 80.2865 120.132 73.7635 126.856C75.5661 127.547 77.2412 127.898 78.7942 127.9ZM60.6876 117.937C63.9948 120.931 67.005 123.234 69.7541 124.871C76.1189 118.85 79.7574 110.463 79.7574 101.688C79.7574 95.9965 78.346 90.4974 75.7805 86.1294C69.6574 85.4923 63.9948 82.9303 59.5433 78.7504L48.2841 97.894C50.9172 105.909 55.1991 112.965 60.6876 117.937ZM45.3258 74.0019V79.3419C45.3258 83.7081 45.8118 88.0375 46.7259 92.1954L56.5578 75.4793C54.3712 72.6598 52.747 69.459 51.7574 66.0384L47.9457 68.8684C46.2741 70.0847 45.3258 71.9515 45.3258 74.0019ZM82.4998 60.2443C81.1682 61.8636 80.126 63.1311 78.7898 63.1311C77.4538 63.1311 76.4122 61.8641 75.0812 60.2452C74.5323 59.5775 73.9341 58.85 73.2459 58.1268C69.0053 53.6076 63.5844 52.4765 59.6427 54.0444C56.2757 55.3838 54.6594 58.4757 55.1068 62.4174C55.94 67.3268 58.2075 71.7906 61.708 75.2745C66.1815 79.7277 72.1859 82.1798 78.7898 82.1798C85.3945 82.1798 91.399 79.7277 95.8725 75.2745C99.3721 71.7906 101.64 67.3268 102.474 62.4174C102.92 58.4757 101.305 55.3838 97.9369 54.0444C93.9969 52.4765 88.576 53.6076 84.3346 58.1268C83.6466 58.8497 83.0486 59.5769 82.4998 60.2443ZM92.9862 40.0844C89.0515 43.512 84.1219 45.4007 78.7898 45.4007C73.4577 45.4007 68.543 43.512 64.5942 40.0844C64.1188 39.6704 63.4157 39.6608 62.9578 40.0615C59.437 43.1438 56.934 47.1497 55.6745 51.5563C61.7467 47.437 69.3252 48.8907 75.0607 54.1437C75.9077 54.9199 76.4853 55.5137 76.9196 55.9602C77.7791 56.8439 78.0772 57.1504 78.7907 57.1504C79.5038 57.1504 79.8015 56.8442 80.66 55.9616C81.0944 55.515 81.6725 54.9207 82.5206 54.1437C88.2553 48.8907 95.8338 47.437 101.907 51.5563C100.647 47.1497 98.1435 43.1438 94.6236 40.0615C94.1657 39.6608 93.4617 39.6704 92.9862 40.0844ZM106.77 61.3531L112.214 65.3959C114.942 67.3813 116.58 70.6033 116.58 74.0019V79.3419C116.58 95.7487 110.15 111.766 99.7966 121.143C91.4596 128.694 84.7855 132.216 78.7942 132.226C72.7959 132.216 66.1217 128.694 57.7838 121.143C47.4316 111.766 41 95.7487 41 79.3419V74.0019C41 70.6033 42.6391 67.3813 45.3829 65.3836L50.8214 61.3452C50.2932 56.239 50.4356 45.7944 60.2473 36.9705C62.2459 35.2207 65.2762 35.2269 67.295 36.9855C70.4809 39.7618 74.5633 41.2902 78.7898 41.2902C83.0172 41.2902 87.0995 39.7618 90.2863 36.9855C92.3042 35.2277 95.3337 35.2198 97.3314 36.9688C106.869 45.4956 107.325 55.9973 106.77 61.3531ZM61.7822 63.7679C61.7822 61.4195 63.2693 59.5089 65.0973 59.5089C66.9254 59.5089 68.4116 61.4195 68.4116 63.7679C68.4116 66.1171 66.9254 68.0269 65.0973 68.0269C63.2693 68.0269 61.7822 66.1171 61.7822 63.7679ZM78.7807 66.5697C80.353 66.5697 81.4823 67.7044 81.5922 69.3927C81.6089 69.644 81.6168 69.9016 81.6168 70.1582C81.6168 72.8475 81.0754 75.0403 79.8063 77.4906L79.758 77.5847C79.5743 77.9485 79.2966 78.4969 78.7807 78.4969C78.2672 78.4969 77.9896 77.951 77.8051 77.588L77.8034 77.5847L77.7559 77.4906C76.4859 75.0403 75.9454 72.8475 75.9454 70.1582C75.9454 69.9016 75.9533 69.644 75.97 69.3927C76.079 67.7044 77.2093 66.5697 78.7807 66.5697ZM96.7526 63.1033C96.3158 61.7138 95.0327 60.6424 93.5588 60.4385C91.5005 60.1538 89.4088 61.3886 87.9613 63.7396C87.5262 64.4436 87.724 65.0403 88.0544 65.3629C88.2803 65.5843 88.5818 65.7056 88.9236 65.7135L88.9319 65.7142C88.935 65.7143 88.9381 65.7144 88.9411 65.7144C88.9426 65.7144 88.9441 65.7144 88.9456 65.7144C89.3504 65.7144 89.7254 65.448 90.0012 65.2522L90.0038 65.2504L90.1286 65.1634C91.6209 64.1527 92.8777 64.0797 94.2057 64.9243C94.9404 65.3919 95.6997 65.4376 96.2367 65.0456C96.7922 64.6387 96.9952 63.8758 96.7526 63.1033Z" fill="#020D26"/>
<path d="M504.736 130.296H525.736V124.416H511.792V60.828H525.736V54.948H504.736V130.296Z" fill="#1B2D55"/>
<path d="M543.312 119.98V106.796C545.36 107.692 547.472 108.14 549.776 108.14C557.2 108.14 563.408 103.468 563.408 91.372C563.408 79.084 558.032 74.668 551.376 74.668C548.24 74.668 545.424 75.82 542.864 78.636V75.308H534.48V119.98H543.312ZM548.496 82.284C552.528 82.284 554.576 84.46 554.576 91.372C554.576 98.732 552.528 101.036 547.984 101.036C546.576 101.036 544.976 100.716 543.312 100.076V84.076C545.168 82.732 546.832 82.284 548.496 82.284ZM585.522 119.98L598.45 75.308H589.746L582.706 102.316L576.114 75.308H567.026L576.498 107.5H581.042L577.202 119.98H585.522ZM621.659 93.804V86.444H603.099V93.804H621.659ZM642.833 96.236C651.218 96.236 655.89 92.332 655.89 85.484C655.89 83.5 655.442 81.836 654.418 80.492L660.242 79.084L658.13 72.236L648.978 75.692C647.25 75.052 645.202 74.668 642.833 74.668C634.45 74.668 629.714 78.572 629.714 85.356C629.714 89.132 631.122 92.076 633.81 93.932C630.546 95.468 629.074 97.58 629.074 100.332C629.074 102.636 630.29 104.556 632.274 105.836C628.818 107.244 627.41 109.42 627.41 112.044C627.41 116.588 631.89 120.62 641.618 120.62C652.05 120.62 658.45 115.308 658.45 108.716C658.45 103.724 654.93 100.204 647.826 100.204H639.378C637.842 100.204 637.074 99.564 637.074 98.604C637.074 97.58 637.714 96.812 639.954 96.044C640.85 96.172 641.81 96.236 642.833 96.236ZM642.833 90.22C639.442 90.22 637.97 88.556 637.97 85.356C637.97 82.284 639.442 80.748 642.833 80.748C646.226 80.748 647.698 82.284 647.698 85.484C647.698 88.62 646.226 90.22 642.833 90.22ZM635.602 110.7C635.602 109.42 636.114 108.332 637.522 107.5C638.098 107.564 638.802 107.628 639.442 107.628H647.122C649.298 107.628 650.13 108.716 650.13 110.124C650.13 112.428 647.378 114.412 642.002 114.412C637.778 114.412 635.602 113.004 635.602 110.7ZM669.521 71.276C672.849 71.276 674.577 69.228 674.577 66.476C674.577 63.852 672.849 61.612 669.521 61.612C666.257 61.612 664.465 63.852 664.465 66.476C664.465 69.228 666.257 71.276 669.521 71.276ZM673.937 75.308H665.105V107.5H673.937V75.308ZM703.524 75.308H694.244V67.308H687.78L686.18 75.308L680.036 76.204V82.54H685.54V97.068C685.54 104.492 689.636 108.14 696.42 108.14C699.492 108.14 702.372 107.436 704.996 106.028L702.692 99.244C700.964 100.012 699.364 100.396 697.892 100.396C695.396 100.396 694.244 99.436 694.244 96.62V82.54H703.524V75.308ZM723.521 96.236C731.905 96.236 736.577 92.332 736.577 85.484C736.577 83.5 736.129 81.836 735.105 80.492L740.929 79.084L738.817 72.236L729.665 75.692C727.937 75.052 725.889 74.668 723.521 74.668C715.137 74.668 710.401 78.572 710.401 85.356C710.401 89.132 711.809 92.076 714.497 93.932C711.233 95.468 709.761 97.58 709.761 100.332C709.761 102.636 710.977 104.556 712.961 105.836C709.505 107.244 708.097 109.42 708.097 112.044C708.097 116.588 712.577 120.62 722.305 120.62C732.737 120.62 739.137 115.308 739.137 108.716C739.137 103.724 735.617 100.204 728.513 100.204H720.065C718.529 100.204 717.761 99.564 717.761 98.604C717.761 97.58 718.401 96.812 720.641 96.044C721.537 96.172 722.497 96.236 723.521 96.236ZM723.521 90.22C720.129 90.22 718.657 88.556 718.657 85.356C718.657 82.284 720.129 80.748 723.521 80.748C726.913 80.748 728.385 82.284 728.385 85.484C728.385 88.62 726.913 90.22 723.521 90.22ZM716.289 110.7C716.289 109.42 716.801 108.332 718.209 107.5C718.785 107.564 719.489 107.628 720.129 107.628H727.809C729.985 107.628 730.817 108.716 730.817 110.124C730.817 112.428 728.065 114.412 722.689 114.412C718.465 114.412 716.289 113.004 716.289 110.7ZM745.601 75.308V97.388C745.601 104.364 749.249 108.14 755.329 108.14C758.465 108.14 761.345 107.116 765.057 103.596V107.5H773.377V75.308H764.609V97.644C761.985 99.564 759.937 100.268 758.273 100.268C755.713 100.268 754.369 98.988 754.369 95.852V75.308H745.601ZM808.402 107.5V86.572C808.402 78.188 803.922 74.668 795.794 74.668C791.826 74.668 786.962 75.756 782.098 78.124L784.722 84.78C788.882 82.988 791.89 82.284 794.514 82.284C798.226 82.284 799.826 83.756 799.826 87.404V89.004H792.658C784.914 89.004 781.074 93.164 781.074 98.604C781.074 104.364 785.17 108.14 790.866 108.14C794.45 108.14 797.394 106.988 800.146 103.98V107.5H808.402ZM793.426 101.484C790.93 101.484 789.458 100.332 789.458 98.028C789.458 96.044 790.674 94.636 793.49 94.636H799.826V98.988C797.458 100.844 795.538 101.484 793.426 101.484ZM825.875 107.5V85.74C829.139 83.756 832.467 83.052 836.435 83.052V74.668C832.851 74.668 829.458 75.692 825.427 79.724V75.308H817.043V107.5H825.875ZM869.746 107.5V64.108H860.914V76.012C858.93 75.116 856.882 74.668 854.642 74.668C847.154 74.668 840.818 79.34 840.818 91.5C840.818 103.724 846.194 108.14 852.978 108.14C856.114 108.14 858.866 106.988 861.426 104.044V107.5H869.746ZM855.73 100.588C851.57 100.588 849.65 98.412 849.65 91.5C849.65 84.076 851.698 81.772 856.242 81.772C857.714 81.772 859.25 82.092 860.914 82.796V98.732C859.122 100.076 857.394 100.588 855.73 100.588ZM883.209 71.276C886.537 71.276 888.265 69.228 888.265 66.476C888.265 63.852 886.537 61.612 883.209 61.612C879.945 61.612 878.153 63.852 878.153 66.476C878.153 69.228 879.945 71.276 883.209 71.276ZM887.625 75.308H878.793V107.5H887.625V75.308ZM922.652 107.5V86.572C922.652 78.188 918.172 74.668 910.044 74.668C906.076 74.668 901.212 75.756 896.348 78.124L898.972 84.78C903.132 82.988 906.14 82.284 908.764 82.284C912.476 82.284 914.076 83.756 914.076 87.404V89.004H906.908C899.164 89.004 895.324 93.164 895.324 98.604C895.324 104.364 899.42 108.14 905.116 108.14C908.7 108.14 911.644 106.988 914.396 103.98V107.5H922.652ZM907.676 101.484C905.18 101.484 903.708 100.332 903.708 98.028C903.708 96.044 904.924 94.636 907.74 94.636H914.076V98.988C911.708 100.844 909.788 101.484 907.676 101.484ZM940.125 107.5V85.164C942.812 83.244 945.117 82.54 946.845 82.54C949.405 82.54 950.685 83.884 950.685 86.956V107.5H959.453V85.42C959.453 78.444 955.869 74.668 949.789 74.668C946.589 74.668 943.517 75.692 939.677 79.276V75.308H931.293V107.5H940.125Z" fill="#08D7BE"/>
<path d="M968.2 60.828H982.144V124.416H968.2V130.296H989.2V54.948H968.2V60.828Z" fill="#1B2D55"/>
</svg>
